<?xml version="1.0" encoding="UTF-8" standalone="no"?>
<svg
   xmlns:dc="http://purl.org/dc/elements/1.1/"
   xmlns:cc="http://creativecommons.org/ns#"
   xmlns:rdf="http://www.w3.org/1999/02/22-rdf-syntax-ns#"
   xmlns:svg="http://www.w3.org/2000/svg"
   xmlns="http://www.w3.org/2000/svg"
   id="svg4"
   version="1.1"
   stroke-miterlimit="1.414"
   stroke-linejoin="round"
   clip-rule="evenodd"
   fill-rule="evenodd"
   viewBox="0 0 16 16">
  <metadata
     id="metadata10">
    <rdf:RDF>
      <cc:Work
         rdf:about="">
        <dc:format>image/svg+xml</dc:format>
        <dc:type
           rdf:resource="http://purl.org/dc/dcmitype/StillImage" />
        <dc:title></dc:title>
      </cc:Work>
    </rdf:RDF>
  </metadata>
  <defs
     id="defs8" />
  <path
     style="fill:#233d4d;fill-opacity:1"
     id="path2"
     fill-rule="nonzero"
     d="M15.117 0H.883C.395 0 0 .395 0 .883v14.234c0 .488.395.883.883.883h7.663V9.804H6.46V7.39h2.086V5.607c0-2.066 1.262-3.19 3.106-3.19.883 0 1.642.064 1.863.094v2.16h-1.28c-1 0-1.195.48-1.195 1.18v1.54h2.39l-.31 2.42h-2.08V16h4.077c.488 0 .883-.395.883-.883V.883C16 .395 15.605 0 15.117 0" />
</svg>
